<svg width="37" height="39" viewBox="0 0 37 39" fill="none" xmlns="http://www.w3.org/2000/svg">
<path fill-rule="evenodd" clip-rule="evenodd" d="M14.0513 1.08743H22.9258V8.80042L28.927 2.79926L35.2022 9.07446L29.1379 15.1387H36.9771V24.0132H29.2641L35.2427 29.9918L28.9675 36.267L22.9258 30.2253V38.0644H14.0513V30.2253L8.00961 36.267L1.73441 29.9918L7.71305 24.0132H6.10352e-05V15.1387H7.83918L1.77496 9.07446L8.05016 2.79926L14.0513 8.80042V1.08743ZM14.9016 15.989C12.8799 18.0106 12.8799 21.2884 14.9016 23.31C16.9233 25.3317 20.201 25.3317 22.2227 23.31C24.2443 21.2884 24.2443 18.0106 22.2227 15.989C20.201 13.9673 16.9233 13.9673 14.9016 15.989Z" fill="#0A5F91"/>
</svg>
